<svg version="1.0" id="Layer_2" xmlns="http://www.w3.org/2000/svg" xmlns:xlink="http://www.w3.org/1999/xlink" x="0px" y="0px"
	 viewBox="0 0 256 256" style="enable-background:new 0 0 256 256;" xml:space="preserve">
<style>
	.st0 {
		fill: #474948;
		stroke: #474948;
		stroke-width: 11;
		stroke-miterlimit: 10;
		}
	.st1 {
		fill:none;
		stroke: #474948;
		stroke-width: 11;
		stroke-miterlimit: 10;
		}
	.st2 {
		fill: #FD8DA9;
		stroke: #FD8DA9;
		stroke-width: 11;
		stroke-miterlimit: 10;
		}
</style>
<path class="st0" d="M181.86,31.04c8.48-1.16,22.41,1.49,26.81,7.75c6.13,8.72,1.46,19.49,1.46,19.49s-9.8-8.63-21.01-14.67
	l-10.82-2.53L181.86,31.04z"/>
<polyline class="st1" points="103.44,143.49 90.06,188.61 166.4,175.25 167.79,196.75 149.49,199.57 "/>
<polyline class="st1" points="128.05,144.2 128.57,238.63 149.77,238.63 "/>
<path class="st2" d="M146.84,109.36c-2.06-5.34-10.45-25.24-28.88-31.25C94.04,70.3,47.86,85.37,45.8,128
	c0,0,8.73-12.03,13.32-11.84c4.76,0.19,13.28,12.77,17.99,13.81c6.76,1.49,12.96,2.45,18.82,3.04c0,0,2.16,9.97,5.15,9.97l4.55,1
	c6.41-1,10.5-10.26,10.5-10.26c0.97-0.02,1.95-0.05,2.92-0.08c0,0,1.35,10.06,6.71,10.35h4.66c6.87-2.43,6.7-11.42,6.7-11.42
	c3.74-0.26,7.59-0.53,11.63-0.77c32.08,0,33.29-14,35.03-23.33c0,0,1.01-8-4.97-14.16c-13.11-13.51-25.95-12.96-30.36-25.14
	c-1.67-4.61-1.78-11.32,1.61-15.67c6.19-7.93,19.37-1.99,26.28-9.5c2.61-2.83,5.85-11.2,5.53-12.93
	c-5.96-17.25-23.39-17.22-37.03-8.83c-15.5,9.53-16.35,36.76-6.69,51.52c9.38,14.32,20.61,14.32,28.52,26.79
	c2.69,4.25-0.79,12.43-5.89,14.46C156.64,116.62,148.56,116.8,146.84,109.36z"/>
<circle class="st1" cx="163.63" cy="31" r="1.8"/>
</svg>
